<svg width="512" height="512" viewBox="0 0 512 512" fill="none" xmlns="http://www.w3.org/2000/svg">
<rect width="512" height="512" rx="24" fill="#42B883"/>
<path d="M92.7 183.3C92.7 178.3 94.6 174 98.4 170.4C102.4 166.8 107.2 165 112.8 165H248.7C248.7 177 246.6 185.8 242.4 191.4C238.4 196.8 231.8 199.5 222.6 199.5H132.9V250.2H212.7C212.7 262.2 210.6 271 206.4 276.6C202.4 282 195.8 284.7 186.6 284.7H132.9V349.2C132.9 359.2 129.7 366.5 123.3 371.1C116.9 375.5 106.7 377.7 92.7 377.7V183.3ZM297.977 375C292.177 375 287.177 372.9 282.977 368.7C278.977 364.5 276.977 359.5 276.977 353.7V192C276.977 182 280.277 174.6 286.877 169.8C293.477 164.8 303.577 162.3 317.177 162.3V340.2H398.177C407.577 340.2 414.677 343.2 419.477 349.2C424.277 355 426.677 363.6 426.677 375H297.977Z" fill="white"/>
</svg>
