<svg width="100" height="100" viewBox="0 0 100 100" fill="none" xmlns="http://www.w3.org/2000/svg">
<path d="M36.6667 70L44.4444 62.0833L32.3611 50L44.4444 37.9167L36.6667 30L16.6667 50L36.6667 70ZM63.3333 70L83.3333 50L63.3333 30L55.5556 37.9167L67.6389 50L55.5556 62.0833L63.3333 70ZM11.1111 100C8.05556 100 5.43982 98.912 3.26389 96.7361C1.08796 94.5602 0 91.9444 0 88.8889V11.1111C0 8.05556 1.08796 5.43982 3.26389 3.26389C5.43982 1.08796 8.05556 0 11.1111 0H88.8889C91.9444 0 94.5602 1.08796 96.7361 3.26389C98.912 5.43982 100 8.05556 100 11.1111V88.8889C100 91.9444 98.912 94.5602 96.7361 96.7361C94.5602 98.912 91.9444 100 88.8889 100H11.1111Z" fill="#42B883"/>
</svg>
